<svg version="1.1" viewBox="0.0 0.0 1122.5196850393702 793.7007874015748" fill="none" stroke="none" stroke-linecap="square" stroke-miterlimit="10" xmlns:xlink="http://www.w3.org/1999/xlink" xmlns="http://www.w3.org/2000/svg"><clipPath id="p_1.0"><path d="m0 0l1122.5197 0l0 793.7008l-1122.5197 0l0 -793.7008z" clip-rule="nonzero"/></clipPath><g clip-path="url(#p_1.0)"><path fill="#000000" fill-opacity="0.0" d="m0 0l1122.5197 0l0 793.7008l-1122.5197 0z" fill-rule="evenodd"/><path fill="#000000" fill-opacity="0.0" d="m264.25986 146.35045l594.0 0l0 501.0l-594.0 0z" fill-rule="evenodd"/><path fill="#000000" fill-opacity="0.0" d="m521.2598 180.35045l0 0c0 -18.77768 29.325378 -34.0 65.5 -34.0l0 0c36.174683 0 65.5 15.222321 65.5 34.0l0 0c0 18.77768 -29.325317 34.0 -65.5 34.0l0 0c-36.17462 0 -65.5 -15.222321 -65.5 -34.0z" fill-rule="evenodd"/><path stroke="#000000" stroke-width="1.3333333333333333" stroke-miterlimit="800.0" stroke-linecap="butt" d="m521.2598 180.35045l0 0c0 -18.77768 29.325378 -34.0 65.5 -34.0l0 0c36.174683 0 65.5 15.222321 65.5 34.0l0 0c0 18.77768 -29.325317 34.0 -65.5 34.0l0 0c-36.17462 0 -65.5 -15.222321 -65.5 -34.0z" fill-rule="evenodd"/><path fill="#000000" fill-opacity="0.0" d="m549.99 159.93474l76.97638 0l0 34.015747l-76.97638 0z" fill-rule="evenodd"/><path fill="#000000" d="m560.5525 184.41473l0 -15.265625l5.734375 0q1.75 0 2.796875 0.46875q1.0625 0.453125 1.65625 1.421875q0.59375 0.96875 0.59375 2.015625q0 0.96875 -0.53125 1.84375q-0.53125 0.859375 -1.59375 1.390625q1.375 0.40625 2.125 1.390625q0.75 0.96875 0.75 2.3125q0 1.0625 -0.453125 1.984375q-0.453125 0.921875 -1.125 1.421875q-0.671875 0.5 -1.671875 0.765625q-1.0 0.25 -2.453125 0.25l-5.828125 0zm2.015625 -8.859375l3.3125 0q1.34375 0 1.921875 -0.171875q0.765625 -0.234375 1.15625 -0.765625q0.390625 -0.53125 0.390625 -1.328125q0 -0.75 -0.359375 -1.328125q-0.359375 -0.578125 -1.046875 -0.796875q-0.671875 -0.21875 -2.3125 -0.21875l-3.0625 0l0 4.609375zm0 7.0625l3.8125 0q0.96875 0 1.375 -0.078125q0.6875 -0.125 1.15625 -0.40625q0.46875 -0.296875 0.765625 -0.859375q0.3125 -0.5625 0.3125 -1.28125q0 -0.859375 -0.4375 -1.484375q-0.4375 -0.640625 -1.21875 -0.890625q-0.765625 -0.25 -2.234375 -0.25l-3.53125 0l0 5.25z" fill-rule="nonzero"/><path fill="#000000" d="m577.0751 182.93036q0 0.3125 -0.03125 0.59375q-0.03125 0.265625 -0.109375 0.515625q-0.0625 0.234375 -0.1875 0.46875q-0.109375 0.234375 -0.296875 0.484375l-1.421875 2.15625q-0.046875 0.0625 -0.125 0.109375q-0.0625 0.0625 -0.171875 0.09375q-0.09375 0.046875 -0.21875 0.0625q-0.125 0.015625 -0.328125 0.015625q-0.171875 0 -0.296875 -0.015625q-0.125 -0.015625 -0.171875 -0.046875q-0.046875 -0.03125 -0.0625 -0.09375q0 -0.0625 0.046875 -0.15625l1.375 -2.859375l0 -1.328125q0 -0.28125 0.0625 -0.453125q0.0625 -0.171875 0.1875 -0.25q0.125 -0.078125 0.3125 -0.109375q0.1875 -0.03125 0.453125 -0.03125q0.265625 0 0.453125 0.03125q0.1875 0.03125 0.296875 0.109375q0.125 0.078125 0.171875 0.25q0.0625 0.171875 0.0625 0.453125z" fill-rule="nonzero"/><path fill="#000000" d="m584.9372 184.41473l0 -15.265625l3.046875 0l3.609375 10.8125q0.5 1.5 0.734375 2.25q0.265625 -0.828125 0.8125 -2.4375l3.65625 -10.625l2.71875 0l0 15.265625l-1.953125 0l0 -12.78125l-4.4375 12.78125l-1.8125 0l-4.421875 -13.0l0 13.0l-1.953125 0zm17.86023 -15.265625l2.03125 0l0 6.6875q1.375 0 1.9375 -0.53125q0.5625 -0.546875 1.4375 -2.578125q0.640625 -1.5 1.046875 -2.125q0.421875 -0.625 1.171875 -1.046875q0.765625 -0.421875 1.671875 -0.421875q1.171875 0 1.234375 0.03125l0 1.75q-0.109375 0 -0.40625 -0.015625q-0.328125 -0.015625 -0.40625 -0.015625q-0.96875 0 -1.4375 0.46875q-0.46875 0.46875 -1.09375 2.0q-0.765625 1.9375 -1.296875 2.453125q-0.53125 0.5 -1.265625 0.796875q1.46875 0.40625 2.90625 2.734375l3.140625 5.078125l-2.5 0l-2.546875 -4.140625q-1.0625 -1.71875 -1.765625 -2.359375q-0.703125 -0.640625 -1.828125 -0.640625l0 7.140625l-2.03125 0l0 -15.265625z" fill-rule="nonzero"/><path fill="#000000" fill-opacity="0.0" d="m521.2598 263.35043l0 0c0 -18.777664 29.325378 -33.999985 65.5 -33.999985l0 0c36.174683 0 65.5 15.222321 65.5 33.999985l0 0c0 18.77768 -29.325317 34.0 -65.5 34.0l0 0c-36.17462 0 -65.5 -15.222321 -65.5 -34.0z" fill-rule="evenodd"/><path stroke="#000000" stroke-width="1.3333333333333333" stroke-miterlimit="800.0" stroke-linecap="butt" d="m521.2598 263.35043l0 0c0 -18.777664 29.325378 -33.999985 65.5 -33.999985l0 0c36.174683 0 65.5 15.222321 65.5 33.999985l0 0c0 18.77768 -29.325317 34.0 -65.5 34.0l0 0c-36.17462 0 -65.5 -15.222321 -65.5 -34.0z" fill-rule="evenodd"/><path fill="#000000" fill-opacity="0.0" d="m572.2598 243.35045l31.0 0l0 39.999985l-31.0 0z" fill-rule="evenodd"/><path fill="#000000" d="m581.3536 267.83044l5.90625 -7.953125l-5.203125 -7.3125l2.40625 0l2.765625 3.921875q0.859375 1.203125 1.234375 1.859375q0.5 -0.828125 1.203125 -1.734375l3.0625 -4.046875l2.203125 0l-5.359375 7.1875l5.78125 8.078125l-2.5 0l-3.84375 -5.453125q-0.328125 -0.46875 -0.671875 -1.015625q-0.5 0.828125 -0.71875 1.140625l-3.84375 5.328125l-2.421875 0z" fill-rule="nonzero"/><path fill="#000000" fill-opacity="0.0" d="m404.09317 344.85043c0 -83.66666 57.833344 -167.33331 115.66666 -167.33331" fill-rule="evenodd"/><path stroke="#000000" stroke-width="1.0" stroke-linejoin="round" stroke-linecap="butt" d="m404.09317 344.85043c0 -41.833344 14.4583435 -83.66666 36.145844 -115.04164c10.84375 -15.6875 23.494781 -28.760422 37.04947 -37.91147c6.7773438 -4.5755157 13.780609 -8.170578 20.89679 -10.621735c3.558136 -1.2256012 7.1445007 -2.165207 10.744934 -2.7984314c0.9001465 -0.15829468 1.8011475 -0.29745483 2.7027893 -0.41714478c0.45080566 -0.059829712 0.90179443 -0.11482239 1.3529663 -0.16487122c0.22558594 -0.025039673 0.45117188 -0.048843384 0.6767578 -0.07142639l0.10449219 -0.009887695" fill-rule="evenodd"/><path fill="#000000" stroke="#000000" stroke-width="1.0" stroke-linecap="butt" d="m513.8489 179.46355l4.4508667 -1.8741302l-4.614258 -1.425293z" fill-rule="evenodd"/><path fill="#000000" fill-opacity="0.0" d="m470.8765 344.80048c0 -40.033325 24.416687 -80.06668 48.833344 -80.06668" fill-rule="evenodd"/><path stroke="#000000" stroke-width="1.0" stroke-linejoin="round" stroke-linecap="butt" d="m470.87646 344.80048c0 -20.016663 6.104187 -40.033325 15.260437 -55.045837c4.5781555 -7.506256 9.919281 -13.761475 15.641968 -18.140106c2.8612976 -2.1893005 5.8180237 -3.9095154 8.822418 -5.082367c0.75112915 -0.29318237 1.5051575 -0.5522156 2.2615051 -0.77578735c0.18908691 -0.055908203 0.3782959 -0.109558105 0.56762695 -0.16101074l0.32977295 -0.08566284" fill-rule="evenodd"/><path fill="#000000" stroke="#000000" stroke-width="1.0" stroke-linecap="butt" d="m513.9738 267.14758l4.286438 -2.2247314l-4.713623 -1.0509949z" fill-rule="evenodd"/><path fill="#000000" fill-opacity="0.0" d="m774.7598 344.85043c0 -83.399994 -61.099976 -166.79999 -122.20001 -166.79999" fill-rule="evenodd"/><path stroke="#000000" stroke-width="1.0" stroke-linejoin="round" stroke-linecap="butt" d="m774.7598 344.85043c0 -41.700012 -15.275024 -83.399994 -38.1875 -114.67499c-11.456238 -15.637512 -24.821838 -28.668762 -39.142212 -37.79062c-7.160095 -4.5609436 -14.558899 -8.1445465 -22.077087 -10.587891c-3.7590942 -1.2216797 -7.5480347 -2.1582947 -11.351868 -2.7895203c-0.95098877 -0.15777588 -1.902832 -0.29649353 -2.8554077 -0.415802c-0.47631836 -0.059661865 -0.9528198 -0.11445618 -1.4293823 -0.16436768c-0.23828125 -0.02494812 -0.47668457 -0.048675537 -0.71502686 -0.07119751l-0.4473877 -0.039916992" fill-rule="evenodd"/><path fill="#000000" stroke="#000000" stroke-width="1.0" stroke-linecap="butt" d="m658.6271 176.66602l-4.6067505 1.4491577l4.4605103 1.8510742z" fill-rule="evenodd"/><path fill="#000000" fill-opacity="0.0" d="m710.9765 345.06708c0 -40.19998 -29.516663 -80.399994 -59.033325 -80.399994" fill-rule="evenodd"/><path stroke="#000000" stroke-width="1.0" stroke-linejoin="round" stroke-linecap="butt" d="m710.97644 345.0671c0 -20.100006 -7.3791504 -40.200012 -18.447876 -55.275024c-5.534363 -7.537506 -11.99115 -13.818756 -18.909058 -18.215637c-3.4589844 -2.1984253 -7.033325 -3.9257812 -10.665222 -5.1035156c-0.907959 -0.2944336 -1.8195801 -0.5545349 -2.7338257 -0.7790222c-0.45715332 -0.11224365 -0.914978 -0.21560669 -1.3734131 -0.309906c-0.22912598 -0.04714966 -0.4584961 -0.09207153 -0.68792725 -0.13467407l-0.24029541 -0.04220581" fill-rule="evenodd"/><path fill="#000000" stroke="#000000" stroke-width="1.0" stroke-linecap="butt" d="m658.0675 263.5621l-4.668335 1.2365723l4.3710327 2.0534973z" fill-rule="evenodd"/><path fill="#000000" fill-opacity="0.0" d="m408.25986 210.35045l37.93332 0l0 35.266663l-37.93332 0z" fill-rule="evenodd"/><path fill="#000000" d="m425.15048 228.95795q0 0.828125 -0.3125 1.484375q-0.296875 0.640625 -0.84375 1.09375q-0.53125 0.453125 -1.265625 0.6875q-0.734375 0.21875 -1.578125 0.21875q-0.59375 0 -1.109375 -0.109375q-0.5 -0.09375 -0.890625 -0.234375q-0.390625 -0.140625 -0.671875 -0.296875q-0.265625 -0.15625 -0.375 -0.265625q-0.09375 -0.109375 -0.15625 -0.28125q-0.046875 -0.171875 -0.046875 -0.453125q0 -0.203125 0.015625 -0.328125q0.03125 -0.140625 0.0625 -0.21875q0.03125 -0.078125 0.078125 -0.109375q0.0625 -0.03125 0.140625 -0.03125q0.125 0 0.359375 0.15625q0.234375 0.15625 0.59375 0.34375q0.375 0.171875 0.875 0.328125q0.515625 0.15625 1.203125 0.15625q0.5 0 0.921875 -0.125q0.421875 -0.140625 0.734375 -0.390625q0.3125 -0.25 0.46875 -0.609375q0.171875 -0.375 0.171875 -0.84375q0 -0.5 -0.234375 -0.84375q-0.234375 -0.359375 -0.609375 -0.625q-0.359375 -0.265625 -0.84375 -0.484375q-0.484375 -0.234375 -0.984375 -0.46875q-0.5 -0.234375 -0.96875 -0.515625q-0.46875 -0.28125 -0.84375 -0.65625q-0.375 -0.390625 -0.609375 -0.90625q-0.234375 -0.515625 -0.234375 -1.234375q0 -0.734375 0.265625 -1.3125q0.265625 -0.578125 0.75 -0.96875q0.484375 -0.390625 1.140625 -0.59375q0.65625 -0.203125 1.421875 -0.203125q0.390625 0 0.78125 0.0625q0.40625 0.0625 0.75 0.1875q0.359375 0.109375 0.625 0.25q0.28125 0.140625 0.359375 0.234375q0.09375 0.078125 0.109375 0.125q0.03125 0.046875 0.046875 0.125q0.03125 0.078125 0.03125 0.1875q0.015625 0.109375 0.015625 0.28125q0 0.171875 -0.015625 0.296875q-0.015625 0.125 -0.046875 0.21875q-0.015625 0.078125 -0.078125 0.125q-0.046875 0.046875 -0.109375 0.046875q-0.09375 0 -0.3125 -0.125q-0.21875 -0.140625 -0.53125 -0.296875q-0.296875 -0.15625 -0.734375 -0.28125q-0.421875 -0.140625 -0.9375 -0.140625q-0.5 0 -0.859375 0.140625q-0.359375 0.125 -0.609375 0.34375q-0.234375 0.21875 -0.359375 0.515625q-0.109375 0.296875 -0.109375 0.640625q0 0.484375 0.21875 0.84375q0.234375 0.359375 0.609375 0.640625q0.390625 0.265625 0.859375 0.5q0.484375 0.21875 0.984375 0.453125q0.515625 0.234375 0.984375 0.515625q0.484375 0.265625 0.859375 0.65625q0.390625 0.375 0.609375 0.890625q0.234375 0.5 0.234375 1.203125zm9.4938965 -2.609375q0 1.359375 -0.21875 2.484375q-0.21875 1.109375 -0.71875 1.921875q-0.484375 0.8125 -1.296875 1.25q-0.796875 0.4375 -1.96875 0.4375q-1.109375 0 -1.875 -0.390625q-0.75 -0.40625 -1.21875 -1.171875q-0.46875 -0.765625 -0.671875 -1.890625q-0.1875 -1.125 -0.1875 -2.578125q0 -1.359375 0.21875 -2.484375q0.21875 -1.125 0.703125 -1.921875q0.5 -0.8125 1.296875 -1.25q0.8125 -0.4375 1.96875 -0.4375q1.125 0 1.875 0.390625q0.765625 0.390625 1.234375 1.171875q0.46875 0.765625 0.65625 1.890625q0.203125 1.125 0.203125 2.578125zm-1.609375 0.109375q0 -0.890625 -0.0625 -1.578125q-0.0625 -0.703125 -0.1875 -1.234375q-0.125 -0.546875 -0.328125 -0.9375q-0.1875 -0.390625 -0.46875 -0.640625q-0.265625 -0.25 -0.625 -0.359375q-0.34375 -0.109375 -0.78125 -0.109375q-0.765625 0 -1.25 0.359375q-0.484375 0.359375 -0.765625 1.0q-0.28125 0.640625 -0.375 1.5q-0.09375 0.859375 -0.09375 1.84375q0 1.3125 0.125 2.234375q0.140625 0.921875 0.4375 1.515625q0.296875 0.578125 0.75 0.84375q0.46875 0.265625 1.125 0.265625q0.5 0 0.890625 -0.15625q0.390625 -0.171875 0.671875 -0.46875q0.28125 -0.3125 0.453125 -0.734375q0.1875 -0.4375 0.296875 -0.953125q0.109375 -0.515625 0.140625 -1.125q0.046875 -0.609375 0.046875 -1.265625z" fill-rule="nonzero"/><path fill="#000000" fill-opacity="0.0" d="m734.2598 208.35045l37.93335 0l0 35.266663l-37.93335 0z" fill-rule="evenodd"/><path fill="#000000" d="m751.15045 226.95795q0 0.828125 -0.3125 1.484375q-0.296875 0.640625 -0.84375 1.09375q-0.53125 0.453125 -1.265625 0.6875q-0.734375 0.21875 -1.578125 0.21875q-0.59375 0 -1.109375 -0.109375q-0.5 -0.09375 -0.890625 -0.234375q-0.390625 -0.140625 -0.671875 -0.296875q-0.265625 -0.15625 -0.375 -0.265625q-0.09375 -0.109375 -0.15625 -0.28125q-0.046875 -0.171875 -0.046875 -0.453125q0 -0.203125 0.015625 -0.328125q0.03125 -0.140625 0.0625 -0.21875q0.03125 -0.078125 0.078125 -0.109375q0.0625 -0.03125 0.140625 -0.03125q0.125 0 0.359375 0.15625q0.234375 0.15625 0.59375 0.34375q0.375 0.171875 0.875 0.328125q0.515625 0.15625 1.203125 0.15625q0.5 0 0.921875 -0.125q0.421875 -0.140625 0.734375 -0.390625q0.3125 -0.25 0.46875 -0.609375q0.171875 -0.375 0.171875 -0.84375q0 -0.5 -0.234375 -0.84375q-0.234375 -0.359375 -0.609375 -0.625q-0.359375 -0.265625 -0.84375 -0.484375q-0.484375 -0.234375 -0.984375 -0.46875q-0.5 -0.234375 -0.96875 -0.515625q-0.46875 -0.28125 -0.84375 -0.65625q-0.375 -0.390625 -0.609375 -0.90625q-0.234375 -0.515625 -0.234375 -1.234375q0 -0.734375 0.265625 -1.3125q0.265625 -0.578125 0.75 -0.96875q0.484375 -0.390625 1.140625 -0.59375q0.65625 -0.203125 1.421875 -0.203125q0.390625 0 0.78125 0.0625q0.40625 0.0625 0.75 0.1875q0.359375 0.109375 0.625 0.25q0.28125 0.140625 0.359375 0.234375q0.09375 0.078125 0.109375 0.125q0.03125 0.046875 0.046875 0.125q0.03125 0.078125 0.03125 0.1875q0.015625 0.109375 0.015625 0.28125q0 0.171875 -0.015625 0.296875q-0.015625 0.125 -0.046875 0.21875q-0.015625 0.078125 -0.078125 0.125q-0.046875 0.046875 -0.109375 0.046875q-0.09375 0 -0.3125 -0.125q-0.21875 -0.140625 -0.53125 -0.296875q-0.296875 -0.15625 -0.734375 -0.28125q-0.421875 -0.140625 -0.9375 -0.140625q-0.5 0 -0.859375 0.140625q-0.359375 0.125 -0.609375 0.34375q-0.234375 0.21875 -0.359375 0.515625q-0.109375 0.296875 -0.109375 0.640625q0 0.484375 0.21875 0.84375q0.234375 0.359375 0.609375 0.640625q0.390625 0.265625 0.859375 0.5q0.484375 0.21875 0.984375 0.453125q0.515625 0.234375 0.984375 0.515625q0.484375 0.265625 0.859375 0.65625q0.390625 0.375 0.609375 0.890625q0.234375 0.5 0.234375 1.203125zm9.4939575 -2.609375q0 1.359375 -0.21875 2.484375q-0.21875 1.109375 -0.71875 1.921875q-0.484375 0.8125 -1.296875 1.25q-0.796875 0.4375 -1.96875 0.4375q-1.109375 0 -1.875 -0.390625q-0.75 -0.40625 -1.21875 -1.171875q-0.46875 -0.765625 -0.671875 -1.890625q-0.1875 -1.125 -0.1875 -2.578125q0 -1.359375 0.21875 -2.484375q0.21875 -1.125 0.703125 -1.921875q0.5 -0.8125 1.296875 -1.25q0.8125 -0.4375 1.96875 -0.4375q1.125 0 1.875 0.390625q0.765625 0.390625 1.234375 1.171875q0.46875 0.765625 0.65625 1.890625q0.203125 1.125 0.203125 2.578125zm-1.609375 0.109375q0 -0.890625 -0.0625 -1.578125q-0.0625 -0.703125 -0.1875 -1.234375q-0.125 -0.546875 -0.328125 -0.9375q-0.1875 -0.390625 -0.46875 -0.640625q-0.265625 -0.25 -0.625 -0.359375q-0.34375 -0.109375 -0.78125 -0.109375q-0.765625 0 -1.25 0.359375q-0.484375 0.359375 -0.765625 1.0q-0.28125 0.640625 -0.375 1.5q-0.09375 0.859375 -0.09375 1.84375q0 1.3125 0.125 2.234375q0.140625 0.921875 0.4375 1.515625q0.296875 0.578125 0.75 0.84375q0.46875 0.265625 1.125 0.265625q0.5 0 0.890625 -0.15625q0.390625 -0.171875 0.671875 -0.46875q0.28125 -0.3125 0.453125 -0.734375q0.1875 -0.4375 0.296875 -0.953125q0.109375 -0.515625 0.140625 -1.125q0.046875 -0.609375 0.046875 -1.265625z" fill-rule="nonzero"/><path fill="#000000" fill-opacity="0.0" d="m449.98712 274.21408l37.921265 0l0 35.275604l-37.921265 0z" fill-rule="evenodd"/><path fill="#000000" d="m466.87775 292.8216q0 0.828125 -0.3125 1.484375q-0.296875 0.640625 -0.84375 1.09375q-0.53125 0.453125 -1.265625 0.6875q-0.734375 0.21875 -1.578125 0.21875q-0.59375 0 -1.109375 -0.109375q-0.5 -0.09375 -0.890625 -0.234375q-0.390625 -0.140625 -0.671875 -0.296875q-0.265625 -0.15625 -0.375 -0.265625q-0.09375 -0.109375 -0.15625 -0.28125q-0.046875 -0.171875 -0.046875 -0.453125q0 -0.203125 0.015625 -0.328125q0.03125 -0.140625 0.0625 -0.21875q0.03125 -0.078125 0.078125 -0.109375q0.0625 -0.03125 0.140625 -0.03125q0.125 0 0.359375 0.15625q0.234375 0.15625 0.59375 0.34375q0.375 0.171875 0.875 0.328125q0.515625 0.15625 1.203125 0.15625q0.5 0 0.921875 -0.125q0.421875 -0.140625 0.734375 -0.390625q0.3125 -0.25 0.46875 -0.609375q0.171875 -0.375 0.171875 -0.84375q0 -0.5 -0.234375 -0.84375q-0.234375 -0.359375 -0.609375 -0.625q-0.359375 -0.265625 -0.84375 -0.484375q-0.484375 -0.234375 -0.984375 -0.46875q-0.5 -0.234375 -0.96875 -0.515625q-0.46875 -0.28125 -0.84375 -0.65625q-0.375 -0.390625 -0.609375 -0.90625q-0.234375 -0.515625 -0.234375 -1.234375q0 -0.734375 0.265625 -1.3125q0.265625 -0.578125 0.75 -0.96875q0.484375 -0.390625 1.140625 -0.59375q0.65625 -0.203125 1.421875 -0.203125q0.390625 0 0.78125 0.0625q0.40625 0.0625 0.75 0.1875q0.359375 0.109375 0.625 0.25q0.28125 0.140625 0.359375 0.234375q0.09375 0.078125 0.109375 0.125q0.03125 0.046875 0.046875 0.125q0.03125 0.078125 0.03125 0.1875q0.015625 0.109375 0.015625 0.28125q0 0.171875 -0.015625 0.296875q-0.015625 0.125 -0.046875 0.21875q-0.015625 0.078125 -0.078125 0.125q-0.046875 0.046875 -0.109375 0.046875q-0.09375 0 -0.3125 -0.125q-0.21875 -0.140625 -0.53125 -0.296875q-0.296875 -0.15625 -0.734375 -0.28125q-0.421875 -0.140625 -0.9375 -0.140625q-0.5 0 -0.859375 0.140625q-0.359375 0.125 -0.609375 0.34375q-0.234375 0.21875 -0.359375 0.515625q-0.109375 0.296875 -0.109375 0.640625q0 0.484375 0.21875 0.84375q0.234375 0.359375 0.609375 0.640625q0.390625 0.265625 0.859375 0.5q0.484375 0.21875 0.984375 0.453125q0.515625 0.234375 0.984375 0.515625q0.484375 0.265625 0.859375 0.65625q0.390625 0.375 0.609375 0.890625q0.234375 0.5 0.234375 1.203125zm9.1188965 2.6875q0 0.171875 -0.03125 0.296875q-0.015625 0.125 -0.0625 0.203125q-0.046875 0.0625 -0.109375 0.09375q-0.046875 0.03125 -0.125 0.03125l-6.15625 0q-0.0625 0 -0.125 -0.03125q-0.046875 -0.03125 -0.09375 -0.09375q-0.046875 -0.078125 -0.078125 -0.203125q-0.03125 -0.125 -0.03125 -0.296875q0 -0.15625 0.03125 -0.265625q0.03125 -0.125 0.0625 -0.203125q0.046875 -0.078125 0.109375 -0.109375q0.0625 -0.046875 0.125 -0.046875l2.46875 0l0 -8.96875l-2.28125 1.359375q-0.171875 0.09375 -0.28125 0.109375q-0.09375 0.015625 -0.171875 -0.046875q-0.0625 -0.0625 -0.09375 -0.1875q-0.015625 -0.140625 -0.015625 -0.359375q0 -0.140625 0.015625 -0.25q0.015625 -0.109375 0.046875 -0.1875q0.03125 -0.078125 0.078125 -0.125q0.046875 -0.0625 0.125 -0.109375l2.71875 -1.75q0.03125 -0.015625 0.078125 -0.03125q0.0625 -0.03125 0.140625 -0.046875q0.09375 -0.015625 0.203125 -0.015625q0.109375 -0.015625 0.265625 -0.015625q0.21875 0 0.359375 0.03125q0.15625 0.015625 0.234375 0.046875q0.09375 0.03125 0.109375 0.078125q0.03125 0.046875 0.03125 0.109375l0 10.359375l2.125 0q0.078125 0 0.140625 0.046875q0.0625 0.03125 0.109375 0.109375q0.046875 0.078125 0.0625 0.203125q0.015625 0.109375 0.015625 0.265625z" fill-rule="nonzero"/><path fill="#000000" fill-opacity="0.0" d="m689.5326 273.07773l37.921265 0l0 35.275574l-37.921265 0z" fill-rule="evenodd"/><path fill="#000000" d="m706.4232 291.6852q0 0.828125 -0.3125 1.484375q-0.296875 0.640625 -0.84375 1.09375q-0.53125 0.453125 -1.265625 0.6875q-0.734375 0.21875 -1.578125 0.21875q-0.59375 0 -1.109375 -0.109375q-0.5 -0.09375 -0.890625 -0.234375q-0.390625 -0.140625 -0.671875 -0.296875q-0.265625 -0.15625 -0.375 -0.265625q-0.09375 -0.109375 -0.15625 -0.28125q-0.046875 -0.171875 -0.046875 -0.453125q0 -0.203125 0.015625 -0.328125q0.03125 -0.140625 0.0625 -0.21875q0.03125 -0.078125 0.078125 -0.109375q0.0625 -0.03125 0.140625 -0.03125q0.125 0 0.359375 0.15625q0.234375 0.15625 0.59375 0.34375q0.375 0.171875 0.875 0.328125q0.515625 0.15625 1.203125 0.15625q0.5 0 0.921875 -0.125q0.421875 -0.140625 0.734375 -0.390625q0.3125 -0.25 0.46875 -0.609375q0.171875 -0.375 0.171875 -0.84375q0 -0.5 -0.234375 -0.84375q-0.234375 -0.359375 -0.609375 -0.625q-0.359375 -0.265625 -0.84375 -0.484375q-0.484375 -0.234375 -0.984375 -0.46875q-0.5 -0.234375 -0.96875 -0.515625q-0.46875 -0.28125 -0.84375 -0.65625q-0.375 -0.390625 -0.609375 -0.90625q-0.234375 -0.515625 -0.234375 -1.234375q0 -0.734375 0.265625 -1.3125q0.265625 -0.578125 0.75 -0.96875q0.484375 -0.390625 1.140625 -0.59375q0.65625 -0.203125 1.421875 -0.203125q0.390625 0 0.78125 0.0625q0.40625 0.0625 0.75 0.1875q0.359375 0.109375 0.625 0.25q0.28125 0.140625 0.359375 0.234375q0.09375 0.078125 0.109375 0.125q0.03125 0.046875 0.046875 0.125q0.03125 0.078125 0.03125 0.1875q0.015625 0.109375 0.015625 0.28125q0 0.171875 -0.015625 0.296875q-0.015625 0.125 -0.046875 0.21875q-0.015625 0.078125 -0.078125 0.125q-0.046875 0.046875 -0.109375 0.046875q-0.09375 0 -0.3125 -0.125q-0.21875 -0.140625 -0.53125 -0.296875q-0.296875 -0.15625 -0.734375 -0.28125q-0.421875 -0.140625 -0.9375 -0.140625q-0.5 0 -0.859375 0.140625q-0.359375 0.125 -0.609375 0.34375q-0.234375 0.21875 -0.359375 0.515625q-0.109375 0.296875 -0.109375 0.640625q0 0.484375 0.21875 0.84375q0.234375 0.359375 0.609375 0.640625q0.390625 0.265625 0.859375 0.5q0.484375 0.21875 0.984375 0.453125q0.515625 0.234375 0.984375 0.515625q0.484375 0.265625 0.859375 0.65625q0.390625 0.375 0.609375 0.890625q0.234375 0.5 0.234375 1.203125zm9.1188965 2.6875q0 0.171875 -0.03125 0.296875q-0.015625 0.125 -0.0625 0.203125q-0.046875 0.0625 -0.109375 0.09375q-0.046875 0.03125 -0.125 0.03125l-6.15625 0q-0.0625 0 -0.125 -0.03125q-0.046875 -0.03125 -0.09375 -0.09375q-0.046875 -0.078125 -0.078125 -0.203125q-0.03125 -0.125 -0.03125 -0.296875q0 -0.15625 0.03125 -0.265625q0.03125 -0.125 0.0625 -0.203125q0.046875 -0.078125 0.109375 -0.109375q0.0625 -0.046875 0.125 -0.046875l2.46875 0l0 -8.96875l-2.28125 1.359375q-0.171875 0.09375 -0.28125 0.109375q-0.09375 0.015625 -0.171875 -0.046875q-0.0625 -0.0625 -0.09375 -0.1875q-0.015625 -0.140625 -0.015625 -0.359375q0 -0.140625 0.015625 -0.25q0.015625 -0.109375 0.046875 -0.1875q0.03125 -0.078125 0.078125 -0.125q0.046875 -0.0625 0.125 -0.109375l2.71875 -1.75q0.03125 -0.015625 0.078125 -0.03125q0.0625 -0.03125 0.140625 -0.046875q0.09375 -0.015625 0.203125 -0.015625q0.109375 -0.015625 0.265625 -0.015625q0.21875 0 0.359375 0.03125q0.15625 0.015625 0.234375 0.046875q0.09375 0.03125 0.109375 0.078125q0.03125 0.046875 0.03125 0.109375l0 10.359375l2.125 0q0.078125 0 0.140625 0.046875q0.0625 0.03125 0.109375 0.109375q0.046875 0.078125 0.0625 0.203125q0.015625 0.109375 0.015625 0.265625z" fill-rule="nonzero"/><path fill="#000000" fill-opacity="0.0" d="m566.2598 362.35043l37.921265 0l0 35.275604l-37.921265 0z" fill-rule="evenodd"/><path fill="#000000" d="m583.15045 380.95795q0 0.828125 -0.3125 1.484375q-0.296875 0.640625 -0.84375 1.09375q-0.53125 0.453125 -1.265625 0.6875q-0.734375 0.21875 -1.578125 0.21875q-0.59375 0 -1.109375 -0.109375q-0.5 -0.09375 -0.890625 -0.234375q-0.390625 -0.140625 -0.671875 -0.296875q-0.265625 -0.15625 -0.375 -0.265625q-0.09375 -0.109375 -0.15625 -0.28125q-0.046875 -0.171875 -0.046875 -0.453125q0 -0.203125 0.015625 -0.328125q0.03125 -0.140625 0.0625 -0.21875q0.03125 -0.078125 0.078125 -0.109375q0.0625 -0.03125 0.140625 -0.03125q0.125 0 0.359375 0.15625q0.234375 0.15625 0.59375 0.34375q0.375 0.171875 0.875 0.328125q0.515625 0.15625 1.203125 0.15625q0.5 0 0.921875 -0.125q0.421875 -0.140625 0.734375 -0.390625q0.3125 -0.25 0.46875 -0.609375q0.171875 -0.375 0.171875 -0.84375q0 -0.5 -0.234375 -0.84375q-0.234375 -0.359375 -0.609375 -0.625q-0.359375 -0.265625 -0.84375 -0.484375q-0.484375 -0.234375 -0.984375 -0.46875q-0.5 -0.234375 -0.96875 -0.515625q-0.46875 -0.28125 -0.84375 -0.65625q-0.375 -0.390625 -0.609375 -0.90625q-0.234375 -0.515625 -0.234375 -1.234375q0 -0.734375 0.265625 -1.3125q0.265625 -0.578125 0.75 -0.96875q0.484375 -0.390625 1.140625 -0.59375q0.65625 -0.203125 1.421875 -0.203125q0.390625 0 0.78125 0.0625q0.40625 0.0625 0.75 0.1875q0.359375 0.109375 0.625 0.25q0.28125 0.140625 0.359375 0.234375q0.09375 0.078125 0.109375 0.125q0.03125 0.046875 0.046875 0.125q0.03125 0.078125 0.03125 0.1875q0.015625 0.109375 0.015625 0.28125q0 0.171875 -0.015625 0.296875q-0.015625 0.125 -0.046875 0.21875q-0.015625 0.078125 -0.078125 0.125q-0.046875 0.046875 -0.109375 0.046875q-0.09375 0 -0.3125 -0.125q-0.21875 -0.140625 -0.53125 -0.296875q-0.296875 -0.15625 -0.734375 -0.28125q-0.421875 -0.140625 -0.9375 -0.140625q-0.5 0 -0.859375 0.140625q-0.359375 0.125 -0.609375 0.34375q-0.234375 0.21875 -0.359375 0.515625q-0.109375 0.296875 -0.109375 0.640625q0 0.484375 0.21875 0.84375q0.234375 0.359375 0.609375 0.640625q0.390625 0.265625 0.859375 0.5q0.484375 0.21875 0.984375 0.453125q0.515625 0.234375 0.984375 0.515625q0.484375 0.265625 0.859375 0.65625q0.390625 0.375 0.609375 0.890625q0.234375 0.5 0.234375 1.203125zm9.1033325 2.640625q0 0.15625 -0.03125 0.296875q-0.015625 0.125 -0.0625 0.21875q-0.03125 0.078125 -0.109375 0.125q-0.0625 0.03125 -0.140625 0.03125l-6.515625 0q-0.125 0 -0.234375 -0.03125q-0.09375 -0.03125 -0.15625 -0.09375q-0.0625 -0.078125 -0.109375 -0.21875q-0.03125 -0.140625 -0.03125 -0.34375q0 -0.171875 0.015625 -0.3125q0.015625 -0.140625 0.0625 -0.234375q0.046875 -0.109375 0.109375 -0.21875q0.078125 -0.109375 0.1875 -0.21875l2.28125 -2.421875q0.796875 -0.84375 1.265625 -1.5q0.484375 -0.671875 0.734375 -1.21875q0.265625 -0.546875 0.34375 -0.984375q0.09375 -0.453125 0.09375 -0.84375q0 -0.390625 -0.140625 -0.734375q-0.125 -0.359375 -0.359375 -0.625q-0.234375 -0.265625 -0.609375 -0.421875q-0.359375 -0.15625 -0.828125 -0.15625q-0.5625 0 -1.015625 0.15625q-0.4375 0.15625 -0.765625 0.34375q-0.328125 0.171875 -0.5625 0.328125q-0.21875 0.15625 -0.328125 0.15625q-0.0625 0 -0.109375 -0.03125q-0.046875 -0.046875 -0.078125 -0.125q-0.03125 -0.078125 -0.0625 -0.21875q-0.015625 -0.140625 -0.015625 -0.328125q0 -0.140625 0.015625 -0.234375q0.015625 -0.09375 0.03125 -0.171875q0.03125 -0.078125 0.0625 -0.140625q0.03125 -0.0625 0.140625 -0.15625q0.109375 -0.09375 0.375 -0.25q0.28125 -0.171875 0.671875 -0.328125q0.40625 -0.15625 0.890625 -0.265625q0.5 -0.109375 1.03125 -0.109375q0.859375 0 1.5 0.234375q0.640625 0.234375 1.0625 0.65625q0.421875 0.421875 0.625 0.984375q0.21875 0.546875 0.21875 1.171875q0 0.578125 -0.109375 1.140625q-0.09375 0.546875 -0.421875 1.203125q-0.3125 0.65625 -0.921875 1.453125q-0.609375 0.796875 -1.625 1.828125l-1.859375 1.953125l5.125 0q0.078125 0 0.140625 0.046875q0.0625 0.03125 0.109375 0.125q0.0625 0.078125 0.078125 0.203125q0.03125 0.109375 0.03125 0.28125z" fill-rule="nonzero"/><path fill="#000000" fill-opacity="0.0" d="m557.2598 414.35043l37.921265 0l0 35.275604l-37.921265 0z" fill-rule="evenodd"/><path fill="#000000" d="m574.15045 432.95795q0 0.828125 -0.3125 1.484375q-0.296875 0.640625 -0.84375 1.09375q-0.53125 0.453125 -1.265625 0.6875q-0.734375 0.21875 -1.578125 0.21875q-0.59375 0 -1.109375 -0.109375q-0.5 -0.09375 -0.890625 -0.234375q-0.390625 -0.140625 -0.671875 -0.296875q-0.265625 -0.15625 -0.375 -0.265625q-0.09375 -0.109375 -0.15625 -0.28125q-0.046875 -0.171875 -0.046875 -0.453125q0 -0.203125 0.015625 -0.328125q0.03125 -0.140625 0.0625 -0.21875q0.03125 -0.078125 0.078125 -0.109375q0.0625 -0.03125 0.140625 -0.03125q0.125 0 0.359375 0.15625q0.234375 0.15625 0.59375 0.34375q0.375 0.171875 0.875 0.328125q0.515625 0.15625 1.203125 0.15625q0.5 0 0.921875 -0.125q0.421875 -0.140625 0.734375 -0.390625q0.3125 -0.25 0.46875 -0.609375q0.171875 -0.375 0.171875 -0.84375q0 -0.5 -0.234375 -0.84375q-0.234375 -0.359375 -0.609375 -0.625q-0.359375 -0.265625 -0.84375 -0.484375q-0.484375 -0.234375 -0.984375 -0.46875q-0.5 -0.234375 -0.96875 -0.515625q-0.46875 -0.28125 -0.84375 -0.65625q-0.375 -0.390625 -0.609375 -0.90625q-0.234375 -0.515625 -0.234375 -1.234375q0 -0.734375 0.265625 -1.3125q0.265625 -0.578125 0.75 -0.96875q0.484375 -0.390625 1.140625 -0.59375q0.65625 -0.203125 1.421875 -0.203125q0.390625 0 0.78125 0.0625q0.40625 0.0625 0.75 0.1875q0.359375 0.109375 0.625 0.25q0.28125 0.140625 0.359375 0.234375q0.09375 0.078125 0.109375 0.125q0.03125 0.046875 0.046875 0.125q0.03125 0.078125 0.03125 0.1875q0.015625 0.109375 0.015625 0.28125q0 0.171875 -0.015625 0.296875q-0.015625 0.125 -0.046875 0.21875q-0.015625 0.078125 -0.078125 0.125q-0.046875 0.046875 -0.109375 0.046875q-0.09375 0 -0.3125 -0.125q-0.21875 -0.140625 -0.53125 -0.296875q-0.296875 -0.15625 -0.734375 -0.28125q-0.421875 -0.140625 -0.9375 -0.140625q-0.5 0 -0.859375 0.140625q-0.359375 0.125 -0.609375 0.34375q-0.234375 0.21875 -0.359375 0.515625q-0.109375 0.296875 -0.109375 0.640625q0 0.484375 0.21875 0.84375q0.234375 0.359375 0.609375 0.640625q0.390625 0.265625 0.859375 0.5q0.484375 0.21875 0.984375 0.453125q0.515625 0.234375 0.984375 0.515625q0.484375 0.265625 0.859375 0.65625q0.390625 0.375 0.609375 0.890625q0.234375 0.5 0.234375 1.203125zm9.0095825 -0.0625q0 0.8125 -0.28125 1.46875q-0.28125 0.65625 -0.8125 1.125q-0.53125 0.453125 -1.3125 0.703125q-0.765625 0.25 -1.734375 0.25q-0.59375 0 -1.109375 -0.09375q-0.515625 -0.09375 -0.921875 -0.21875q-0.390625 -0.140625 -0.65625 -0.28125q-0.265625 -0.140625 -0.34375 -0.203125q-0.0625 -0.0625 -0.109375 -0.125q-0.03125 -0.0625 -0.0625 -0.15625q-0.015625 -0.09375 -0.03125 -0.21875q-0.015625 -0.140625 -0.015625 -0.328125q0 -0.328125 0.0625 -0.453125q0.0625 -0.140625 0.1875 -0.140625q0.078125 0 0.3125 0.15625q0.25 0.140625 0.625 0.3125q0.375 0.171875 0.875 0.3125q0.515625 0.140625 1.140625 0.140625q0.59375 0 1.046875 -0.15625q0.453125 -0.15625 0.765625 -0.4375q0.3125 -0.28125 0.46875 -0.65625q0.15625 -0.390625 0.15625 -0.84375q0 -0.5 -0.203125 -0.90625q-0.1875 -0.40625 -0.578125 -0.6875q-0.375 -0.296875 -0.921875 -0.453125q-0.546875 -0.15625 -1.25 -0.15625l-1.125 0q-0.0625 0 -0.140625 -0.03125q-0.0625 -0.03125 -0.109375 -0.09375q-0.046875 -0.078125 -0.09375 -0.1875q-0.03125 -0.125 -0.03125 -0.328125q0 -0.171875 0.03125 -0.28125q0.03125 -0.109375 0.078125 -0.171875q0.046875 -0.078125 0.109375 -0.109375q0.0625 -0.03125 0.15625 -0.03125l1.03125 0q0.59375 0 1.0625 -0.15625q0.484375 -0.15625 0.8125 -0.4375q0.34375 -0.296875 0.515625 -0.703125q0.1875 -0.40625 0.1875 -0.90625q0 -0.375 -0.125 -0.703125q-0.125 -0.328125 -0.359375 -0.578125q-0.234375 -0.25 -0.609375 -0.390625q-0.359375 -0.140625 -0.84375 -0.140625q-0.53125 0 -0.96875 0.171875q-0.4375 0.15625 -0.796875 0.34375q-0.34375 0.171875 -0.578125 0.328125q-0.21875 0.15625 -0.3125 0.15625q-0.0625 0 -0.109375 -0.015625q-0.046875 -0.015625 -0.078125 -0.078125q-0.03125 -0.078125 -0.046875 -0.203125q-0.015625 -0.125 -0.015625 -0.328125q0 -0.140625 0 -0.234375q0.015625 -0.109375 0.046875 -0.1875q0.03125 -0.078125 0.0625 -0.140625q0.03125 -0.0625 0.109375 -0.140625q0.09375 -0.09375 0.359375 -0.25q0.265625 -0.171875 0.65625 -0.328125q0.390625 -0.15625 0.890625 -0.265625q0.515625 -0.109375 1.09375 -0.109375q0.8125 0 1.4375 0.203125q0.625 0.203125 1.03125 0.59375q0.421875 0.375 0.625 0.921875q0.203125 0.53125 0.203125 1.171875q0 0.546875 -0.15625 1.03125q-0.140625 0.484375 -0.421875 0.859375q-0.28125 0.359375 -0.6875 0.625q-0.40625 0.25 -0.953125 0.359375l0 0.015625q0.609375 0.0625 1.109375 0.3125q0.515625 0.234375 0.875 0.59375q0.375 0.359375 0.578125 0.859375q0.203125 0.484375 0.203125 1.03125z" fill-rule="nonzero"/><path fill="#000000" fill-opacity="0.0" d="m544.2598 465.35043l37.921265 0l0 35.275604l-37.921265 0z" fill-rule="evenodd"/><path fill="#000000" d="m561.15045 483.95795q0 0.828125 -0.3125 1.484375q-0.296875 0.640625 -0.84375 1.09375q-0.53125 0.453125 -1.265625 0.6875q-0.734375 0.21875 -1.578125 0.21875q-0.59375 0 -1.109375 -0.109375q-0.5 -0.09375 -0.890625 -0.234375q-0.390625 -0.140625 -0.671875 -0.296875q-0.265625 -0.15625 -0.375 -0.265625q-0.09375 -0.109375 -0.15625 -0.28125q-0.046875 -0.171875 -0.046875 -0.453125q0 -0.203125 0.015625 -0.328125q0.03125 -0.140625 0.0625 -0.21875q0.03125 -0.078125 0.078125 -0.109375q0.0625 -0.03125 0.140625 -0.03125q0.125 0 0.359375 0.15625q0.234375 0.15625 0.59375 0.34375q0.375 0.171875 0.875 0.328125q0.515625 0.15625 1.203125 0.15625q0.5 0 0.921875 -0.125q0.421875 -0.140625 0.734375 -0.390625q0.3125 -0.25 0.46875 -0.609375q0.171875 -0.375 0.171875 -0.84375q0 -0.5 -0.234375 -0.84375q-0.234375 -0.359375 -0.609375 -0.625q-0.359375 -0.265625 -0.84375 -0.484375q-0.484375 -0.234375 -0.984375 -0.46875q-0.5 -0.234375 -0.96875 -0.515625q-0.46875 -0.28125 -0.84375 -0.65625q-0.375 -0.390625 -0.609375 -0.90625q-0.234375 -0.515625 -0.234375 -1.234375q0 -0.734375 0.265625 -1.3125q0.265625 -0.578125 0.75 -0.96875q0.484375 -0.390625 1.140625 -0.59375q0.65625 -0.203125 1.421875 -0.203125q0.390625 0 0.78125 0.0625q0.40625 0.0625 0.75 0.1875q0.359375 0.109375 0.625 0.25q0.28125 0.140625 0.359375 0.234375q0.09375 0.078125 0.109375 0.125q0.03125 0.046875 0.046875 0.125q0.03125 0.078125 0.03125 0.1875q0.015625 0.109375 0.015625 0.28125q0 0.171875 -0.015625 0.296875q-0.015625 0.125 -0.046875 0.21875q-0.015625 0.078125 -0.078125 0.125q-0.046875 0.046875 -0.109375 0.046875q-0.09375 0 -0.3125 -0.125q-0.21875 -0.140625 -0.53125 -0.296875q-0.296875 -0.15625 -0.734375 -0.28125q-0.421875 -0.140625 -0.9375 -0.140625q-0.5 0 -0.859375 0.140625q-0.359375 0.125 -0.609375 0.34375q-0.234375 0.21875 -0.359375 0.515625q-0.109375 0.296875 -0.109375 0.640625q0 0.484375 0.21875 0.84375q0.234375 0.359375 0.609375 0.640625q0.390625 0.265625 0.859375 0.5q0.484375 0.21875 0.984375 0.453125q0.515625 0.234375 0.984375 0.515625q0.484375 0.265625 0.859375 0.65625q0.390625 0.375 0.609375 0.890625q0.234375 0.5 0.234375 1.203125zm9.6033325 -0.046875q0 0.3125 -0.09375 0.484375q-0.09375 0.171875 -0.25 0.171875l-1.34375 0l0 2.46875q0 0.078125 -0.03125 0.140625q-0.03125 0.046875 -0.125 0.078125q-0.09375 0.03125 -0.234375 0.046875q-0.140625 0.015625 -0.375 0.015625q-0.21875 0 -0.375 -0.015625q-0.140625 -0.015625 -0.234375 -0.046875q-0.078125 -0.03125 -0.109375 -0.078125q-0.03125 -0.0625 -0.03125 -0.140625l0 -2.46875l-4.859375 0q-0.109375 0 -0.1875 -0.03125q-0.078125 -0.03125 -0.140625 -0.09375q-0.046875 -0.078125 -0.078125 -0.203125q-0.015625 -0.140625 -0.015625 -0.359375q0 -0.1875 0 -0.3125q0.015625 -0.140625 0.046875 -0.25q0.03125 -0.125 0.0625 -0.21875q0.046875 -0.109375 0.125 -0.234375l4.234375 -7.15625q0.046875 -0.078125 0.125 -0.125q0.09375 -0.046875 0.234375 -0.078125q0.140625 -0.046875 0.328125 -0.0625q0.203125 -0.015625 0.484375 -0.015625q0.296875 0 0.515625 0.03125q0.234375 0.015625 0.359375 0.0625q0.140625 0.03125 0.203125 0.09375q0.078125 0.046875 0.078125 0.125l0 7.53125l1.34375 0q0.15625 0 0.25 0.15625q0.09375 0.15625 0.09375 0.484375zm-3.203125 -7.109375l-0.015625 0l-3.828125 6.46875l3.84375 0l0 -6.46875z" fill-rule="nonzero"/><path fill="#000000" fill-opacity="0.0" d="m533.2598 519.35046l37.921265 0l0 35.275574l-37.921265 0z" fill-rule="evenodd"/><path fill="#000000" d="m550.15045 537.95795q0 0.828125 -0.3125 1.484375q-0.296875 0.640625 -0.84375 1.09375q-0.53125 0.453125 -1.265625 0.6875q-0.734375 0.21875 -1.578125 0.21875q-0.59375 0 -1.109375 -0.109375q-0.5 -0.09375 -0.890625 -0.234375q-0.390625 -0.140625 -0.671875 -0.296875q-0.265625 -0.15625 -0.375 -0.265625q-0.09375 -0.109375 -0.15625 -0.28125q-0.046875 -0.171875 -0.046875 -0.453125q0 -0.203125 0.015625 -0.328125q0.03125 -0.140625 0.0625 -0.21875q0.03125 -0.078125 0.078125 -0.109375q0.0625 -0.03125 0.140625 -0.03125q0.125 0 0.359375 0.15625q0.234375 0.15625 0.59375 0.34375q0.375 0.171875 0.875 0.328125q0.515625 0.15625 1.203125 0.15625q0.5 0 0.921875 -0.125q0.421875 -0.140625 0.734375 -0.390625q0.3125 -0.25 0.46875 -0.609375q0.171875 -0.375 0.171875 -0.84375q0 -0.5 -0.234375 -0.84375q-0.234375 -0.359375 -0.609375 -0.625q-0.359375 -0.265625 -0.84375 -0.484375q-0.484375 -0.234375 -0.984375 -0.46875q-0.5 -0.234375 -0.96875 -0.515625q-0.46875 -0.28125 -0.84375 -0.65625q-0.375 -0.390625 -0.609375 -0.90625q-0.234375 -0.515625 -0.234375 -1.234375q0 -0.734375 0.265625 -1.3125q0.265625 -0.578125 0.75 -0.96875q0.484375 -0.390625 1.140625 -0.59375q0.65625 -0.203125 1.421875 -0.203125q0.390625 0 0.78125 0.0625q0.40625 0.0625 0.75 0.1875q0.359375 0.109375 0.625 0.25q0.28125 0.140625 0.359375 0.234375q0.09375 0.078125 0.109375 0.125q0.03125 0.046875 0.046875 0.125q0.03125 0.078125 0.03125 0.1875q0.015625 0.109375 0.015625 0.28125q0 0.171875 -0.015625 0.296875q-0.015625 0.125 -0.046875 0.21875q-0.015625 0.078125 -0.078125 0.125q-0.046875 0.046875 -0.109375 0.046875q-0.09375 0 -0.3125 -0.125q-0.21875 -0.140625 -0.53125 -0.296875q-0.296875 -0.15625 -0.734375 -0.28125q-0.421875 -0.140625 -0.9375 -0.140625q-0.5 0 -0.859375 0.140625q-0.359375 0.125 -0.609375 0.34375q-0.234375 0.21875 -0.359375 0.515625q-0.109375 0.296875 -0.109375 0.640625q0 0.484375 0.21875 0.84375q0.234375 0.359375 0.609375 0.640625q0.390625 0.265625 0.859375 0.5q0.484375 0.21875 0.984375 0.453125q0.515625 0.234375 0.984375 0.515625q0.484375 0.265625 0.859375 0.65625q0.390625 0.375 0.609375 0.890625q0.234375 0.5 0.234375 1.203125zm9.0408325 -0.484375q0 0.953125 -0.328125 1.703125q-0.3125 0.734375 -0.890625 1.234375q-0.578125 0.5 -1.390625 0.765625q-0.796875 0.265625 -1.78125 0.265625q-0.546875 0 -1.046875 -0.078125q-0.484375 -0.078125 -0.875 -0.1875q-0.375 -0.109375 -0.625 -0.21875q-0.25 -0.109375 -0.328125 -0.171875q-0.0625 -0.078125 -0.09375 -0.125q-0.015625 -0.0625 -0.046875 -0.125q-0.015625 -0.078125 -0.03125 -0.203125q0 -0.125 0 -0.28125q0 -0.15625 0.015625 -0.28125q0.015625 -0.125 0.046875 -0.203125q0.03125 -0.078125 0.078125 -0.109375q0.0625 -0.03125 0.125 -0.03125q0.09375 0 0.28125 0.109375q0.1875 0.109375 0.515625 0.25q0.328125 0.125 0.796875 0.25q0.484375 0.109375 1.140625 0.109375q0.609375 0 1.109375 -0.140625q0.515625 -0.140625 0.875 -0.453125q0.375 -0.3125 0.578125 -0.78125q0.21875 -0.46875 0.21875 -1.140625q0 -0.5625 -0.1875 -1.0q-0.171875 -0.4375 -0.546875 -0.71875q-0.359375 -0.28125 -0.921875 -0.421875q-0.5625 -0.15625 -1.34375 -0.15625q-0.5625 0 -0.96875 0.0625q-0.390625 0.046875 -0.734375 0.046875q-0.265625 0 -0.375 -0.109375q-0.109375 -0.125 -0.109375 -0.453125l0 -4.8125q0 -0.296875 0.140625 -0.4375q0.140625 -0.140625 0.40625 -0.140625l5.21875 0q0.078125 0 0.140625 0.046875q0.078125 0.03125 0.125 0.109375q0.046875 0.078125 0.0625 0.21875q0.03125 0.125 0.03125 0.296875q0 0.328125 -0.09375 0.515625q-0.09375 0.171875 -0.265625 0.171875l-4.390625 0l0 3.3125q0.3125 -0.046875 0.640625 -0.046875q0.34375 -0.015625 0.78125 -0.015625q1.0 0 1.75 0.234375q0.765625 0.234375 1.265625 0.6875q0.515625 0.4375 0.765625 1.0625q0.265625 0.625 0.265625 1.390625z" fill-rule="nonzero"/><path fill="#000000" fill-opacity="0.0" d="m514.2598 580.35046l37.921265 0l0 35.275574l-37.921265 0z" fill-rule="evenodd"/><path fill="#000000" d="m531.15045 598.95795q0 0.828125 -0.3125 1.484375q-0.296875 0.640625 -0.84375 1.09375q-0.53125 0.453125 -1.265625 0.6875q-0.734375 0.21875 -1.578125 0.21875q-0.59375 0 -1.109375 -0.109375q-0.5 -0.09375 -0.890625 -0.234375q-0.390625 -0.140625 -0.671875 -0.296875q-0.265625 -0.15625 -0.375 -0.265625q-0.09375 -0.109375 -0.15625 -0.28125q-0.046875 -0.171875 -0.046875 -0.453125q0 -0.203125 0.015625 -0.328125q0.03125 -0.140625 0.0625 -0.21875q0.03125 -0.078125 0.078125 -0.109375q0.0625 -0.03125 0.140625 -0.03125q0.125 0 0.359375 0.15625q0.234375 0.15625 0.59375 0.34375q0.375 0.171875 0.875 0.328125q0.515625 0.15625 1.203125 0.15625q0.5 0 0.921875 -0.125q0.421875 -0.140625 0.734375 -0.390625q0.3125 -0.25 0.46875 -0.609375q0.171875 -0.375 0.171875 -0.84375q0 -0.5 -0.234375 -0.84375q-0.234375 -0.359375 -0.609375 -0.625q-0.359375 -0.265625 -0.84375 -0.484375q-0.484375 -0.234375 -0.984375 -0.46875q-0.5 -0.234375 -0.96875 -0.515625q-0.46875 -0.28125 -0.84375 -0.65625q-0.375 -0.390625 -0.609375 -0.90625q-0.234375 -0.515625 -0.234375 -1.234375q0 -0.734375 0.265625 -1.3125q0.265625 -0.578125 0.75 -0.96875q0.484375 -0.390625 1.140625 -0.59375q0.65625 -0.203125 1.421875 -0.203125q0.390625 0 0.78125 0.0625q0.40625 0.0625 0.75 0.1875q0.359375 0.109375 0.625 0.25q0.28125 0.140625 0.359375 0.234375q0.09375 0.078125 0.109375 0.125q0.03125 0.046875 0.046875 0.125q0.03125 0.078125 0.03125 0.1875q0.015625 0.109375 0.015625 0.28125q0 0.171875 -0.015625 0.296875q-0.015625 0.125 -0.046875 0.21875q-0.015625 0.078125 -0.078125 0.125q-0.046875 0.046875 -0.109375 0.046875q-0.09375 0 -0.3125 -0.125q-0.21875 -0.140625 -0.53125 -0.296875q-0.296875 -0.15625 -0.734375 -0.28125q-0.421875 -0.140625 -0.9375 -0.140625q-0.5 0 -0.859375 0.140625q-0.359375 0.125 -0.609375 0.34375q-0.234375 0.21875 -0.359375 0.515625q-0.109375 0.296875 -0.109375 0.640625q0 0.484375 0.21875 0.84375q0.234375 0.359375 0.609375 0.640625q0.390625 0.265625 0.859375 0.5q0.484375 0.21875 0.984375 0.453125q0.515625 0.234375 0.984375 0.515625q0.484375 0.265625 0.859375 0.65625q0.390625 0.375 0.609375 0.890625q0.234375 0.5 0.234375 1.203125zm9.4002075 -0.5q0 0.765625 -0.234375 1.5q-0.234375 0.71875 -0.734375 1.28125q-0.484375 0.546875 -1.25 0.875q-0.75 0.328125 -1.78125 0.328125q-0.734375 0 -1.3125 -0.171875q-0.5625 -0.1875 -0.984375 -0.515625q-0.40625 -0.34375 -0.6875 -0.828125q-0.28125 -0.5 -0.453125 -1.125q-0.15625 -0.640625 -0.234375 -1.375q-0.078125 -0.75 -0.078125 -1.609375q0 -0.765625 0.078125 -1.53125q0.09375 -0.78125 0.296875 -1.5q0.21875 -0.71875 0.578125 -1.34375q0.359375 -0.640625 0.890625 -1.109375q0.546875 -0.46875 1.296875 -0.734375q0.765625 -0.28125 1.765625 -0.28125q0.34375 0 0.6875 0.046875q0.34375 0.03125 0.625 0.109375q0.296875 0.0625 0.5 0.15625q0.203125 0.078125 0.265625 0.125q0.0625 0.046875 0.09375 0.109375q0.03125 0.0625 0.046875 0.125q0.015625 0.0625 0.03125 0.15625q0.015625 0.078125 0.015625 0.21875q0 0.15625 -0.015625 0.28125q0 0.109375 -0.03125 0.1875q-0.03125 0.078125 -0.078125 0.109375q-0.046875 0.03125 -0.140625 0.03125q-0.09375 0 -0.265625 -0.0625q-0.171875 -0.0625 -0.421875 -0.140625q-0.25 -0.078125 -0.609375 -0.140625q-0.34375 -0.0625 -0.796875 -0.0625q-0.859375 0 -1.46875 0.34375q-0.609375 0.34375 -1.0 0.9375q-0.375 0.578125 -0.5625 1.34375q-0.1875 0.765625 -0.21875 1.609375q0.234375 -0.140625 0.53125 -0.265625q0.296875 -0.140625 0.640625 -0.25q0.359375 -0.109375 0.75 -0.171875q0.390625 -0.078125 0.84375 -0.078125q0.953125 0 1.609375 0.265625q0.65625 0.25 1.0625 0.71875q0.40625 0.453125 0.578125 1.078125q0.171875 0.625 0.171875 1.359375zm-1.59375 0.140625q0 -0.53125 -0.109375 -0.953125q-0.09375 -0.4375 -0.34375 -0.734375q-0.234375 -0.3125 -0.65625 -0.46875q-0.40625 -0.171875 -1.0 -0.171875q-0.34375 0 -0.6875 0.0625q-0.328125 0.0625 -0.640625 0.171875q-0.3125 0.09375 -0.609375 0.234375q-0.28125 0.140625 -0.515625 0.3125q0 1.171875 0.140625 1.96875q0.15625 0.796875 0.4375 1.28125q0.296875 0.46875 0.71875 0.671875q0.4375 0.203125 1.0 0.203125q0.59375 0 1.015625 -0.21875q0.421875 -0.21875 0.703125 -0.578125q0.296875 -0.375 0.421875 -0.828125q0.125 -0.46875 0.125 -0.953125z" fill-rule="nonzero"/><path fill="#000000" fill-opacity="0.0" d="m264.25986 647.3596l61.251953 -302.0092l183.75592 0l-61.251984 302.0092z" fill-rule="evenodd"/><path stroke="#000000" stroke-width="1.3333333333333333" stroke-miterlimit="800.0" stroke-linecap="butt" d="m264.25986 647.3596l61.251953 -302.0092l183.75592 0l-61.251984 302.0092z" fill-rule="evenodd"/><path fill="#000000" fill-opacity="0.0" d="m380.25986 378.0315l59.02362 0l0 49.583588l-59.02362 0z" fill-rule="evenodd"/><path fill="#000000" d="m395.4786 405.0715l0 -15.15625l-5.65625 0l0 -2.03125l13.625 0l0 2.03125l-5.6875 0l0 15.15625l-2.28125 0z" fill-rule="nonzero"/><path fill="#000000" d="m414.7794 404.27463q0 0.21875 -0.03125 0.375q-0.03125 0.15625 -0.09375 0.25q-0.0625 0.09375 -0.140625 0.140625q-0.0625 0.03125 -0.15625 0.03125l-7.921875 0q-0.078125 0 -0.15625 -0.03125q-0.0625 -0.046875 -0.125 -0.140625q-0.0625 -0.09375 -0.109375 -0.25q-0.03125 -0.15625 -0.03125 -0.375q0 -0.21875 0.03125 -0.359375q0.046875 -0.15625 0.09375 -0.25q0.0625 -0.109375 0.125 -0.15625q0.078125 -0.0625 0.171875 -0.0625l3.171875 0l0 -11.53125l-2.9375 1.75q-0.21875 0.125 -0.359375 0.15625q-0.125 0.015625 -0.21875 -0.0625q-0.078125 -0.078125 -0.109375 -0.25q-0.015625 -0.1875 -0.015625 -0.453125q0 -0.203125 0.015625 -0.34375q0.015625 -0.140625 0.046875 -0.234375q0.03125 -0.09375 0.09375 -0.15625q0.078125 -0.078125 0.171875 -0.140625l3.5 -2.234375q0.046875 -0.046875 0.109375 -0.0625q0.078125 -0.03125 0.171875 -0.046875q0.109375 -0.03125 0.25 -0.03125q0.140625 0 0.359375 0q0.28125 0 0.46875 0.03125q0.1875 0.015625 0.28125 0.0625q0.109375 0.03125 0.140625 0.09375q0.046875 0.0625 0.046875 0.140625l0 13.3125l2.734375 0q0.09375 0 0.171875 0.0625q0.09375 0.046875 0.140625 0.15625q0.0625 0.09375 0.078125 0.25q0.03125 0.140625 0.03125 0.359375z" fill-rule="nonzero"/><path fill="#000000" fill-opacity="0.0" d="m613.2598 641.35046l61.252014 -296.00003l183.75586 0l-61.251953 296.00003z" fill-rule="evenodd"/><path stroke="#000000" stroke-width="1.3333333333333333" stroke-miterlimit="800.0" stroke-linecap="butt" d="m613.2598 641.35046l61.252014 -296.00003l183.75586 0l-61.251953 296.00003z" fill-rule="evenodd"/><path fill="#000000" fill-opacity="0.0" d="m751.2598 364.3517l61.984253 0l0 44.0l-61.984253 0z" fill-rule="evenodd"/><path fill="#000000" d="m766.4786 391.3917l0 -15.15625l-5.65625 0l0 -2.03125l13.625 0l0 2.03125l-5.6875 0l0 15.15625l-2.28125 0z" fill-rule="nonzero"/><path fill="#000000" d="m785.7481 390.5167q0 0.21875 -0.03125 0.390625q-0.03125 0.15625 -0.078125 0.265625q-0.046875 0.109375 -0.140625 0.171875q-0.09375 0.046875 -0.1875 0.046875l-8.390625 0q-0.15625 0 -0.28125 -0.03125q-0.125 -0.046875 -0.21875 -0.140625q-0.078125 -0.09375 -0.125 -0.265625q-0.03125 -0.1875 -0.03125 -0.4375q0 -0.234375 0.015625 -0.40625q0.015625 -0.1875 0.0625 -0.3125q0.0625 -0.140625 0.15625 -0.265625q0.09375 -0.140625 0.234375 -0.296875l2.9375 -3.125q1.015625 -1.078125 1.625 -1.921875q0.625 -0.859375 0.953125 -1.5625q0.34375 -0.703125 0.4375 -1.28125q0.109375 -0.578125 0.109375 -1.078125q0 -0.5 -0.171875 -0.953125q-0.15625 -0.453125 -0.46875 -0.78125q-0.3125 -0.34375 -0.78125 -0.546875q-0.46875 -0.203125 -1.078125 -0.203125q-0.703125 0 -1.28125 0.203125q-0.5625 0.203125 -1.0 0.4375q-0.421875 0.234375 -0.71875 0.4375q-0.28125 0.1875 -0.421875 0.1875q-0.078125 0 -0.140625 -0.046875q-0.0625 -0.046875 -0.109375 -0.140625q-0.03125 -0.109375 -0.0625 -0.28125q-0.015625 -0.1875 -0.015625 -0.4375q0 -0.171875 0 -0.296875q0.015625 -0.125 0.046875 -0.21875q0.03125 -0.09375 0.078125 -0.171875q0.046875 -0.09375 0.1875 -0.21875q0.140625 -0.125 0.484375 -0.328125q0.34375 -0.21875 0.859375 -0.421875q0.53125 -0.203125 1.15625 -0.34375q0.625 -0.140625 1.3125 -0.140625q1.109375 0 1.9375 0.3125q0.828125 0.3125 1.359375 0.859375q0.546875 0.53125 0.8125 1.25q0.28125 0.703125 0.28125 1.515625q0 0.734375 -0.140625 1.453125q-0.125 0.71875 -0.546875 1.5625q-0.40625 0.828125 -1.1875 1.859375q-0.78125 1.015625 -2.09375 2.359375l-2.390625 2.5l6.59375 0q0.09375 0 0.171875 0.0625q0.09375 0.046875 0.15625 0.15625q0.0625 0.109375 0.09375 0.265625q0.03125 0.15625 0.03125 0.359375z" fill-rule="nonzero"/><path fill="#ffffff" d="m454.25986 429.35056l0 0c0 -3.3137512 2.6863403 -6.000122 6.0000916 -6.000122l50.015533 0c1.5913086 0 3.1174622 0.63217163 4.2427063 1.7574158c1.1252441 1.1252441 1.7573853 2.6513977 1.7573853 4.2427063l0 23.999756c0 3.3137817 -2.6863403 6.000122 -6.0000916 6.000122l-50.015533 0c-3.3137512 0 -6.0000916 -2.6863403 -6.0000916 -6.000122z" fill-rule="evenodd"/><path stroke="#42719b" stroke-width="1.3333333333333333" stroke-miterlimit="800.0" stroke-linecap="butt" d="m454.25986 429.35056l0 0c0 -3.3137512 2.6863403 -6.000122 6.0000916 -6.000122l50.015533 0c1.5913086 0 3.1174622 0.63217163 4.2427063 1.7574158c1.1252441 1.1252441 1.7573853 2.6513977 1.7573853 4.2427063l0 23.999756c0 3.3137817 -2.6863403 6.000122 -6.0000916 6.000122l-50.015533 0c-3.3137512 0 -6.0000916 -2.6863403 -6.0000916 -6.000122z" fill-rule="evenodd"/><path fill="#000000" fill-opacity="0.0" d="m461.25986 423.35043l54.86612 0l0 42.992126l-54.86612 0z" fill-rule="evenodd"/><path fill="#ffffff" d="m625.2598 428.35056l0 0c0 -3.3137512 2.6863403 -6.000122 6.000122 -6.000122l50.015503 0c1.5913696 0 3.1174927 0.63217163 4.242737 1.7574158c1.1252441 1.1252441 1.7573853 2.6513977 1.7573853 4.2427063l0 23.999756c0 3.3137817 -2.6863403 6.000122 -6.000122 6.000122l-50.015503 0c-3.3137817 0 -6.000122 -2.6863403 -6.000122 -6.000122z" fill-rule="evenodd"/><path stroke="#42719b" stroke-width="1.3333333333333333" stroke-miterlimit="800.0" stroke-linecap="butt" d="m625.2598 428.35056l0 0c0 -3.3137512 2.6863403 -6.000122 6.000122 -6.000122l50.015503 0c1.5913696 0 3.1174927 0.63217163 4.242737 1.7574158c1.1252441 1.1252441 1.7573853 2.6513977 1.7573853 4.2427063l0 23.999756c0 3.3137817 -2.6863403 6.000122 -6.000122 6.000122l-50.015503 0c-3.3137817 0 -6.000122 -2.6863403 -6.000122 -6.000122z" fill-rule="evenodd"/><path fill="#000000" fill-opacity="0.0" d="m632.2598 422.35043l48.252014 0l0 42.992126l-48.252014 0z" fill-rule="evenodd"/><path fill="#000000" fill-opacity="0.0" d="m625.3932 440.35043l-109.13385 1.0078735" fill-rule="evenodd"/><path stroke="#000000" stroke-width="1.0" stroke-miterlimit="800.0" stroke-linecap="butt" d="m625.3932 440.35043l-103.134155 0.95248413" fill-rule="evenodd"/><path fill="#000000" stroke="#000000" stroke-width="1.0" stroke-linecap="butt" d="m522.2438 439.65125l-4.522644 1.693573l4.5531616 1.6097412z" fill-rule="evenodd"/><path fill="#ffffff" d="m442.25986 482.35056l0 0c0 -3.3137512 2.6863403 -6.000122 6.0000916 -6.000122l50.015533 0c1.5913086 0 3.1174622 0.63217163 4.2427063 1.7574158c1.1252441 1.1252441 1.7574158 2.6513977 1.7574158 4.2427063l0 23.999756c0 3.3137817 -2.6863708 6.0001526 -6.000122 6.0001526l-50.015533 0c-3.3137512 0 -6.0000916 -2.6863708 -6.0000916 -6.0001526z" fill-rule="evenodd"/><path stroke="#42719b" stroke-width="1.3333333333333333" stroke-miterlimit="800.0" stroke-linecap="butt" d="m442.25986 482.35056l0 0c0 -3.3137512 2.6863403 -6.000122 6.0000916 -6.000122l50.015533 0c1.5913086 0 3.1174622 0.63217163 4.2427063 1.7574158c1.1252441 1.1252441 1.7574158 2.6513977 1.7574158 4.2427063l0 23.999756c0 3.3137817 -2.6863708 6.0001526 -6.000122 6.0001526l-50.015533 0c-3.3137512 0 -6.0000916 -2.6863708 -6.0000916 -6.0001526z" fill-rule="evenodd"/><path fill="#000000" fill-opacity="0.0" d="m449.25986 476.35043l48.661407 0l0 42.992157l-48.661407 0z" fill-rule="evenodd"/><path fill="#ffffff" d="m612.2598 482.35056l0 0c0 -3.3137512 2.6863403 -6.000122 6.000122 -6.000122l50.015503 0c1.5913696 0 3.1174927 0.63217163 4.242737 1.7574158c1.1252441 1.1252441 1.7573853 2.6513977 1.7573853 4.2427063l0 23.999756c0 3.3137817 -2.6863403 6.0001526 -6.000122 6.0001526l-50.015503 0c-3.3137817 0 -6.000122 -2.6863708 -6.000122 -6.0001526z" fill-rule="evenodd"/><path stroke="#42719b" stroke-width="1.3333333333333333" stroke-miterlimit="800.0" stroke-linecap="butt" d="m612.2598 482.35056l0 0c0 -3.3137512 2.6863403 -6.000122 6.000122 -6.000122l50.015503 0c1.5913696 0 3.1174927 0.63217163 4.242737 1.7574158c1.1252441 1.1252441 1.7573853 2.6513977 1.7573853 4.2427063l0 23.999756c0 3.3137817 -2.6863403 6.0001526 -6.000122 6.0001526l-50.015503 0c-3.3137817 0 -6.000122 -2.6863708 -6.000122 -6.0001526z" fill-rule="evenodd"/><path fill="#000000" fill-opacity="0.0" d="m619.2598 476.35043l54.456726 0l0 42.992157l-54.456726 0z" fill-rule="evenodd"/><path fill="#000000" fill-opacity="0.0" d="m505.25986 494.35043l106.992096 -1.0078735" fill-rule="evenodd"/><path stroke="#000000" stroke-width="1.0" stroke-miterlimit="800.0" stroke-linecap="butt" d="m505.25986 494.35043l100.99234 -0.951355" fill-rule="evenodd"/><path fill="#000000" stroke="#000000" stroke-width="1.0" stroke-linecap="butt" d="m606.2678 495.05075l4.522339 -1.6944275l-4.553467 -1.6089172z" fill-rule="evenodd"/><path fill="#ffffff" d="m424.25986 535.3506l0 0c0 -3.3137817 2.6863403 -6.000122 6.0000916 -6.000122l50.015533 0c1.5913086 0 3.1174622 0.6321411 4.2427063 1.7573853c1.1252441 1.1252441 1.7574158 2.6513672 1.7574158 4.242737l0 23.999756c0 3.3137817 -2.6863708 6.000122 -6.000122 6.000122l-50.015533 0c-3.3137512 0 -6.0000916 -2.6863403 -6.0000916 -6.000122z" fill-rule="evenodd"/><path stroke="#42719b" stroke-width="1.3333333333333333" stroke-miterlimit="800.0" stroke-linecap="butt" d="m424.25986 535.3506l0 0c0 -3.3137817 2.6863403 -6.000122 6.0000916 -6.000122l50.015533 0c1.5913086 0 3.1174622 0.6321411 4.2427063 1.7573853c1.1252441 1.1252441 1.7574158 2.6513672 1.7574158 4.242737l0 23.999756c0 3.3137817 -2.6863708 6.000122 -6.000122 6.000122l-50.015533 0c-3.3137512 0 -6.0000916 -2.6863403 -6.0000916 -6.000122z" fill-rule="evenodd"/><path fill="#000000" fill-opacity="0.0" d="m431.25986 529.35046l54.86612 0l0 42.992126l-54.86612 0z" fill-rule="evenodd"/><path fill="#ffffff" d="m597.2598 535.3506l0 0c0 -3.3137817 2.6863403 -6.000122 6.000122 -6.000122l50.015503 0c1.5913696 0 3.1174927 0.6321411 4.242737 1.7573853c1.1252441 1.1252441 1.7573853 2.6513672 1.7573853 4.242737l0 23.999756c0 3.3137817 -2.6863403 6.000122 -6.000122 6.000122l-50.015503 0c-3.3137817 0 -6.000122 -2.6863403 -6.000122 -6.000122z" fill-rule="evenodd"/><path stroke="#42719b" stroke-width="1.3333333333333333" stroke-miterlimit="800.0" stroke-linecap="butt" d="m597.2598 535.3506l0 0c0 -3.3137817 2.6863403 -6.000122 6.000122 -6.000122l50.015503 0c1.5913696 0 3.1174927 0.6321411 4.242737 1.7573853c1.1252441 1.1252441 1.7573853 2.6513672 1.7573853 4.242737l0 23.999756c0 3.3137817 -2.6863403 6.000122 -6.000122 6.000122l-50.015503 0c-3.3137817 0 -6.000122 -2.6863403 -6.000122 -6.000122z" fill-rule="evenodd"/><path fill="#000000" fill-opacity="0.0" d="m604.2598 529.35046l48.252014 0l0 42.992126l-48.252014 0z" fill-rule="evenodd"/><path fill="#000000" fill-opacity="0.0" d="m595.3932 546.35046l-109.13388 1.0078735" fill-rule="evenodd"/><path stroke="#000000" stroke-width="1.0" stroke-miterlimit="800.0" stroke-linecap="butt" d="m595.3932 546.35046l-103.134125 0.9524536" fill-rule="evenodd"/><path fill="#000000" stroke="#000000" stroke-width="1.0" stroke-linecap="butt" d="m492.2438 545.65125l-4.522644 1.6935425l4.553131 1.6098022z" fill-rule="evenodd"/><path fill="#ffffff" d="m409.25986 594.3506l0 0c0 -3.3137817 2.6863403 -6.000122 6.0000916 -6.000122l50.015533 0c1.5913086 0 3.1174622 0.6321411 4.2427063 1.7573853c1.1252441 1.1252441 1.7574158 2.6513672 1.7574158 4.242737l0 23.999756c0 3.3137817 -2.6863708 6.000122 -6.000122 6.000122l-50.015533 0c-3.3137512 0 -6.0000916 -2.6863403 -6.0000916 -6.000122z" fill-rule="evenodd"/><path stroke="#42719b" stroke-width="1.3333333333333333" stroke-miterlimit="800.0" stroke-linecap="butt" d="m409.25986 594.3506l0 0c0 -3.3137817 2.6863403 -6.000122 6.0000916 -6.000122l50.015533 0c1.5913086 0 3.1174622 0.6321411 4.2427063 1.7573853c1.1252441 1.1252441 1.7574158 2.6513672 1.7574158 4.242737l0 23.999756c0 3.3137817 -2.6863708 6.000122 -6.000122 6.000122l-50.015533 0c-3.3137512 0 -6.0000916 -2.6863403 -6.0000916 -6.000122z" fill-rule="evenodd"/><path fill="#000000" fill-opacity="0.0" d="m416.25986 588.35046l48.661407 0l0 42.992126l-48.661407 0z" fill-rule="evenodd"/><path fill="#ffffff" d="m588.2598 594.3506l0 0c0 -3.3137817 2.6863403 -6.000122 6.000122 -6.000122l50.015503 0c1.5913696 0 3.1174927 0.6321411 4.242737 1.7573853c1.1252441 1.1252441 1.7573853 2.6513672 1.7573853 4.242737l0 23.999756c0 3.3137817 -2.6863403 6.000122 -6.000122 6.000122l-50.015503 0c-3.3137817 0 -6.000122 -2.6863403 -6.000122 -6.000122z" fill-rule="evenodd"/><path stroke="#42719b" stroke-width="1.3333333333333333" stroke-miterlimit="800.0" stroke-linecap="butt" d="m588.2598 594.3506l0 0c0 -3.3137817 2.6863403 -6.000122 6.000122 -6.000122l50.015503 0c1.5913696 0 3.1174927 0.6321411 4.242737 1.7573853c1.1252441 1.1252441 1.7573853 2.6513672 1.7573853 4.242737l0 23.999756c0 3.3137817 -2.6863403 6.000122 -6.000122 6.000122l-50.015503 0c-3.3137817 0 -6.000122 -2.6863403 -6.000122 -6.000122z" fill-rule="evenodd"/><path fill="#000000" fill-opacity="0.0" d="m595.2598 588.35046l54.456726 0l0 42.992126l-54.456726 0z" fill-rule="evenodd"/><path fill="#000000" fill-opacity="0.0" d="m471.25986 606.35046l117.00784 1.0078735" fill-rule="evenodd"/><path stroke="#000000" stroke-width="1.0" stroke-miterlimit="800.0" stroke-linecap="butt" d="m471.25986 606.35046l111.00809 0.95617676" fill-rule="evenodd"/><path fill="#000000" stroke="#000000" stroke-width="1.0" stroke-linecap="butt" d="m582.2537 608.9583l4.552124 -1.6126099l-4.5236816 -1.6907349z" fill-rule="evenodd"/><path fill="#ffffff" d="m471.25986 377.35056l0 0c0 -3.3137512 2.6863403 -6.000122 6.0000916 -6.000122l50.015503 0c1.5913696 0 3.1174927 0.63217163 4.242737 1.7574158c1.1252441 1.1252441 1.7573853 2.6513977 1.7573853 4.2427063l0 23.999756c0 3.3137817 -2.6863403 6.000122 -6.000122 6.000122l-50.015503 0c-3.3137512 0 -6.0000916 -2.6863403 -6.0000916 -6.000122z" fill-rule="evenodd"/><path stroke="#42719b" stroke-width="1.3333333333333333" stroke-miterlimit="800.0" stroke-linecap="butt" d="m471.25986 377.35056l0 0c0 -3.3137512 2.6863403 -6.000122 6.0000916 -6.000122l50.015503 0c1.5913696 0 3.1174927 0.63217163 4.242737 1.7574158c1.1252441 1.1252441 1.7573853 2.6513977 1.7573853 4.2427063l0 23.999756c0 3.3137817 -2.6863403 6.000122 -6.000122 6.000122l-50.015503 0c-3.3137512 0 -6.0000916 -2.6863403 -6.0000916 -6.000122z" fill-rule="evenodd"/><path fill="#000000" fill-opacity="0.0" d="m478.25986 371.35043l48.661407 0l0 42.992126l-48.661407 0z" fill-rule="evenodd"/><path fill="#000000" fill-opacity="0.0" d="m533.2598 390.35043l106.99213 -1.0078735" fill-rule="evenodd"/><path stroke="#000000" stroke-width="1.0" stroke-miterlimit="800.0" stroke-linecap="butt" d="m533.2598 390.35043l100.99237 -0.951355" fill-rule="evenodd"/><path fill="#000000" stroke="#000000" stroke-width="1.0" stroke-linecap="butt" d="m634.2678 391.05075l4.522339 -1.6944275l-4.553467 -1.6089172z" fill-rule="evenodd"/><path fill="#ffffff" d="m640.2598 377.35056l0 0c0 -3.3137512 2.6863403 -6.000122 6.000122 -6.000122l50.015503 0c1.5913696 0 3.1174927 0.63217163 4.242737 1.7574158c1.1252441 1.1252441 1.7573853 2.6513977 1.7573853 4.2427063l0 23.999756c0 3.3137817 -2.6863403 6.000122 -6.000122 6.000122l-50.015503 0c-3.3137817 0 -6.000122 -2.6863403 -6.000122 -6.000122z" fill-rule="evenodd"/><path stroke="#42719b" stroke-width="1.3333333333333333" stroke-miterlimit="800.0" stroke-linecap="butt" d="m640.2598 377.35056l0 0c0 -3.3137512 2.6863403 -6.000122 6.000122 -6.000122l50.015503 0c1.5913696 0 3.1174927 0.63217163 4.242737 1.7574158c1.1252441 1.1252441 1.7573853 2.6513977 1.7573853 4.2427063l0 23.999756c0 3.3137817 -2.6863403 6.000122 -6.000122 6.000122l-50.015503 0c-3.3137817 0 -6.000122 -2.6863403 -6.000122 -6.000122z" fill-rule="evenodd"/></g></svg>